<svg width="126.97297297297298" height="126.97297297297298" viewBox="0 0 100 100.00000000000001" class="looka-1j8o68f">
    <defs id="SvgjsDefs7318"></defs>
    <path fill="#FFF"
        d="M8.02 15 c-0.08 -1.46 -0.74 -2.32 -2.26 -2.32 c-0.42 0 -0.78 0.06 -1.08 0.18 c-0.92 0.42 -1.26 1.2 -1.26 2.16 c0 0.32 0.04 0.62 0.14 0.88 c0.3 1.04 1.2 1.42 2.2 1.42 c1.52 0 2.26 -0.82 2.26 -2.32 z M11.82 20 l-3 0 c-0.2 -0.5 -0.38 -1 -0.5 -1.52 c-0.68 1.12 -1.72 1.62 -3 1.62 c-2.86 0 -4.9 -2.4 -4.9 -5.14 c0 -3.16 2.36 -5.06 5.34 -5.06 c3.18 0 5.18 2.04 5.26 5.1 c0.02 0.26 0.02 0.56 0.02 0.92 c0 1.4 0.22 2.8 0.78 4.08 z M29.02 14.6 l0 5.4 l-3 0 l0 -5.4 c0 -1.14 -0.54 -1.92 -1.74 -1.92 c-1.18 0 -1.76 0.8 -1.76 1.92 l0 5.4 l-3 0 l0 -5.4 c0 -1.14 -0.58 -1.92 -1.78 -1.92 c-1.18 0 -1.72 0.8 -1.72 1.92 l0 5.4 l-3 0 l0 -5.4 c0 -2.9 1.98 -4.7 4.76 -4.7 c1.42 0 2.52 0.66 3.24 1.88 c0.72 -1.22 1.82 -1.88 3.24 -1.88 c2.88 0 4.76 1.9 4.76 4.7 z M33.86 15 c0 1.48 0.74 2.32 2.24 2.32 c0.42 0 0.8 -0.06 1.1 -0.2 c0.56 -0.22 0.94 -0.64 1.14 -1.22 c0.08 -0.28 0.12 -0.58 0.12 -0.9 s-0.04 -0.62 -0.12 -0.9 c-0.22 -0.62 -0.56 -0.96 -1.14 -1.24 c-0.3 -0.12 -0.68 -0.18 -1.1 -0.18 c-1.5 0 -2.24 0.84 -2.24 2.32 z M30.86 6 l3 0 l0 5 c0.68 -0.78 1.6 -1.1 2.62 -1.1 c2.92 0 4.98 2.34 4.98 5.14 c0 3.16 -2.34 5.06 -5.32 5.06 c-3.1 0 -5.28 -2.04 -5.28 -5.1 l0 -9 z M42.76 10 l3 0 l0 10 l-3 0 l0 -10 z M44.26 9.06 c-1.02 0 -1.74 -0.72 -1.74 -1.74 c0 -1.04 0.72 -1.72 1.74 -1.72 c1.04 0 1.72 0.68 1.72 1.72 c0 1.06 -0.66 1.74 -1.72 1.74 z M52.58 17.32 c1.46 0 2.3 -0.86 2.3 -2.32 s-0.84 -2.32 -2.3 -2.32 s-2.3 0.86 -2.3 2.32 s0.84 2.32 2.3 2.32 z M52.58 20.1 c-3.08 0 -5.3 -2.04 -5.3 -5.1 c0 -3.16 2.3 -5.1 5.3 -5.1 c3.1 0 5.3 2.04 5.3 5.1 c0 3.14 -2.32 5.1 -5.3 5.1 z M58.839999999999996 19.68 l0 -2.8 c1.32 0.4 2.98 0.48 4.34 0.48 c0.54 0 0.96 -0.02 1.26 -0.08 c0.28 -0.04 0.42 -0.14 0.42 -0.28 c0 -0.06 -0.02 -0.1 -0.06 -0.16 c-0.2 -0.2 -0.64 -0.3 -0.9 -0.36 s-0.6 -0.14 -1.02 -0.22 c-0.34 -0.06 -0.74 -0.14 -1.2 -0.24 c-1.56 -0.34 -2.76 -1.22 -2.76 -2.9 c0 -2.48 2.42 -3.22 4.46 -3.22 c1.28 0 2.56 0.18 3.82 0.44 l0 2.82 c-1.26 -0.38 -2.68 -0.48 -4 -0.48 c-0.52 0 -0.88 0.02 -1.1 0.08 s-0.34 0.16 -0.34 0.28 c0 0.18 0.18 0.3 0.52 0.36 c0.34 0.08 0.82 0.18 1.4 0.28 c0.52 0.1 1.02 0.2 1.5 0.32 c1.48 0.38 2.54 1.18 2.54 2.78 c0 2.68 -2.7 3.34 -4.86 3.34 c-1.36 0 -2.7 -0.18 -4.02 -0.44 z">
    </path>
</svg>